<svg width="24" height="27" viewBox="0 0 24 27" fill="none" xmlns="http://www.w3.org/2000/svg">
<path d="M2 13.1571C2 11.2171 2 10.2471 2.39143 9.39429C2.78429 8.54143 3.52 7.91143 4.99286 6.64857L6.42143 5.42429C9.08571 3.14286 10.4143 2 12 2C13.5857 2 14.9157 3.14143 17.5786 5.42286L19.0071 6.64714C20.4786 7.91 21.2157 8.54 21.6071 9.39286C22 10.2457 22 11.2157 22 13.1557V19.2143C22 21.9086 22 23.2543 21.1629 24.0914C20.3257 24.9286 18.98 24.9286 16.2857 24.9286H7.71429C5.02 24.9286 3.67429 24.9286 2.83714 24.0914C2 23.2543 2 21.9086 2 19.2143V13.1571Z" stroke="#757575" stroke-width="2.5"/>
<path d="M15.5714 24.9286V17.7857C15.5714 17.4068 15.4209 17.0435 15.153 16.7756C14.8851 16.5077 14.5217 16.3571 14.1428 16.3571H9.8571C9.47822 16.3571 9.11486 16.5077 8.84695 16.7756C8.57904 17.0435 8.42853 17.4068 8.42853 17.7857V24.9286" stroke="#757575" stroke-width="2.5" stroke-linecap="round" stroke-linejoin="round"/>
</svg>
