<svg width="38" height="23" viewBox="0 0 38 23" fill="none" xmlns="http://www.w3.org/2000/svg">
<path d="M19.5258 0.549999C19.3258 1.07 19.0558 1.83 18.7158 2.83C18.3958 3.81 18.0758 5.09 17.7558 6.67H17.1558C17.2158 6.39 17.2558 6.1 17.2758 5.8C17.3158 5.5 17.3358 5.23 17.3358 4.99C17.3358 4.21 17.1758 3.53 16.8558 2.95C16.5558 2.35 16.0858 1.88 15.4458 1.54C14.8258 1.18 14.0258 0.999999 13.0458 0.999999C11.9858 0.999999 11.0858 1.28 10.3458 1.84C9.60578 2.38 9.23578 3.25 9.23578 4.45C9.23578 5.19 9.40578 5.89 9.74578 6.55C10.1058 7.19 10.5558 7.82 11.0958 8.44C11.6558 9.04 12.2458 9.65 12.8658 10.27C13.4858 10.87 14.0658 11.49 14.6058 12.13C15.1458 12.77 15.5858 13.45 15.9258 14.17C16.2858 14.87 16.4658 15.64 16.4658 16.48C16.4658 17.54 16.2058 18.45 15.6858 19.21C15.1858 19.95 14.5358 20.56 13.7358 21.04C12.9358 21.5 12.0658 21.84 11.1258 22.06C10.2058 22.3 9.30578 22.42 8.42578 22.42C7.52578 22.42 6.77578 22.35 6.17578 22.21C5.59578 22.09 5.10578 21.92 4.70578 21.7C4.30578 21.48 3.91578 21.26 3.53578 21.04C3.33578 20.88 3.13578 20.77 2.93578 20.71C2.75578 20.63 2.60578 20.59 2.48578 20.59C2.22578 20.59 2.00578 20.72 1.82578 20.98C1.66578 21.22 1.46578 21.63 1.22578 22.21H0.625782C0.805782 21.77 0.995782 21.26 1.19578 20.68C1.39578 20.1 1.61578 19.36 1.85578 18.46C2.09578 17.54 2.36578 16.39 2.66578 15.01H3.26578C3.18578 15.39 3.11578 15.79 3.05578 16.21C2.99578 16.61 2.97578 17.01 2.99578 17.41C3.05578 18.81 3.48578 19.89 4.28578 20.65C5.10578 21.41 6.30578 21.79 7.88578 21.79C9.22578 21.79 10.2358 21.51 10.9158 20.95C11.5958 20.37 11.9358 19.53 11.9358 18.43C11.9358 17.59 11.7758 16.83 11.4558 16.15C11.1558 15.45 10.7558 14.8 10.2558 14.2C9.75578 13.6 9.22578 13.01 8.66578 12.43C8.10578 11.85 7.57578 11.26 7.07578 10.66C6.57578 10.04 6.16578 9.38 5.84578 8.68C5.52578 7.96 5.36578 7.16 5.36578 6.28C5.36578 5.28 5.57578 4.41 5.99578 3.67C6.43578 2.93 6.99578 2.32 7.67578 1.84C8.37578 1.34 9.14578 0.969999 9.98578 0.729998C10.8258 0.469998 11.6558 0.339998 12.4758 0.339998C13.5558 0.339998 14.4458 0.469998 15.1458 0.729998C15.8458 0.989999 16.4458 1.3 16.9458 1.66C17.1658 1.8 17.3558 1.92 17.5158 2.02C17.6958 2.1 17.8358 2.14 17.9358 2.14C18.2158 2.14 18.5458 1.61 18.9258 0.549999H19.5258ZM17.9109 15.4C18.8509 15.04 19.7109 14.67 20.4909 14.29C21.2909 13.89 21.9609 13.47 22.5009 13.03C23.2409 12.37 23.8409 11.6 24.3009 10.72C24.7609 9.82 24.9909 8.84 24.9909 7.78C24.9909 7.32 24.9509 7.02 24.8709 6.88C24.7909 6.74 24.6709 6.67 24.5109 6.67C24.0509 6.67 23.5509 6.89 23.0109 7.33C22.4709 7.77 21.9409 8.38 21.4209 9.16C20.9009 9.92 20.4209 10.78 19.9809 11.74C19.5609 12.7 19.2209 13.71 18.9609 14.77C18.7009 15.83 18.5709 16.88 18.5709 17.92C18.5709 18.98 18.7709 19.73 19.1709 20.17C19.5909 20.59 20.1409 20.8 20.8209 20.8C21.4009 20.8 22.0909 20.61 22.8909 20.23C23.6909 19.85 24.4809 19.16 25.2609 18.16L25.7409 18.4C25.3409 19.06 24.8109 19.7 24.1509 20.32C23.4909 20.94 22.7309 21.45 21.8709 21.85C21.0309 22.23 20.1009 22.42 19.0809 22.42C18.2409 22.42 17.4809 22.26 16.8009 21.94C16.1209 21.62 15.5909 21.15 15.2109 20.53C14.8309 19.89 14.6409 19.11 14.6409 18.19C14.6409 17.21 14.8109 16.17 15.1509 15.07C15.4909 13.95 15.9709 12.86 16.5909 11.8C17.2309 10.74 17.9809 9.78 18.8409 8.92C19.7209 8.06 20.6909 7.38 21.7509 6.88C22.8109 6.36 23.9509 6.1 25.1709 6.1C25.9709 6.1 26.6409 6.29 27.1809 6.67C27.7209 7.03 27.9909 7.59 27.9909 8.35C27.9909 9.13 27.7709 9.86 27.3309 10.54C26.8909 11.22 26.2909 11.84 25.5309 12.4C24.7909 12.96 23.9709 13.46 23.0709 13.9C22.1909 14.34 21.3009 14.72 20.4009 15.04C19.5009 15.36 18.6609 15.62 17.8809 15.82L17.9109 15.4ZM27.3926 15.4C28.3326 15.04 29.1926 14.67 29.9726 14.29C30.7726 13.89 31.4426 13.47 31.9826 13.03C32.7226 12.37 33.3226 11.6 33.7826 10.72C34.2426 9.82 34.4726 8.84 34.4726 7.78C34.4726 7.32 34.4326 7.02 34.3526 6.88C34.2726 6.74 34.1526 6.67 33.9926 6.67C33.5326 6.67 33.0326 6.89 32.4926 7.33C31.9526 7.77 31.4226 8.38 30.9026 9.16C30.3826 9.92 29.9026 10.78 29.4626 11.74C29.0426 12.7 28.7026 13.71 28.4426 14.77C28.1826 15.83 28.0526 16.88 28.0526 17.92C28.0526 18.98 28.2526 19.73 28.6526 20.17C29.0726 20.59 29.6226 20.8 30.3026 20.8C30.8826 20.8 31.5726 20.61 32.3726 20.23C33.1726 19.85 33.9626 19.16 34.7426 18.16L35.2226 18.4C34.8226 19.06 34.2926 19.7 33.6326 20.32C32.9726 20.94 32.2126 21.45 31.3526 21.85C30.5126 22.23 29.5826 22.42 28.5626 22.42C27.7226 22.42 26.9626 22.26 26.2826 21.94C25.6026 21.62 25.0726 21.15 24.6926 20.53C24.3126 19.89 24.1226 19.11 24.1226 18.19C24.1226 17.21 24.2926 16.17 24.6326 15.07C24.9726 13.95 25.4526 12.86 26.0726 11.8C26.7126 10.74 27.4626 9.78 28.3226 8.92C29.2026 8.06 30.1726 7.38 31.2326 6.88C32.2926 6.36 33.4326 6.1 34.6526 6.1C35.4526 6.1 36.1226 6.29 36.6626 6.67C37.2026 7.03 37.4726 7.59 37.4726 8.35C37.4726 9.13 37.2526 9.86 36.8126 10.54C36.3726 11.22 35.7726 11.84 35.0126 12.4C34.2726 12.96 33.4526 13.46 32.5526 13.9C31.6726 14.34 30.7826 14.72 29.8826 15.04C28.9826 15.36 28.1426 15.62 27.3626 15.82L27.3926 15.4Z" fill="#781D1C"/>
</svg>
